PathFileType  4	(X/Y/Z) C:\Users\antoi\Documents\MyRepositories\mobilecap\ResultsAnalysis
DataRate	CameraRate	NumFrames	NumMarkers	Units	OrigDataRate	OrigDataStartFrame	OrigNumFrames
100.0	100.0	4	51	mm	100.0	60	158
Frame#	Time	r_knee			r_shank_antsup			r_ankle			r_calc			r_5meta			r_toe			L_knee			L_shank_antsup			L_ankle			L_calc			L_5meta			L_toe			r_sh2			r_sh3			r_sh4			L_sh2			L_sh3			r_thigh1			r_thigh2			r_thigh3			r_thigh4			r_thigh5			L_thigh1			L_thigh2			L_thigh3			L_thigh4			r.ASIS			r.PSIS			L.ASIS			L.PSIS			C7			R_Shoulder			L_Shoulder			R_Sternum			L_Sternum			R_humerus			R_elbow_med			R_elbow_lat			R_forearm			R_wrist_radius			R_wrist_ulna			L_humerus			L_elbow_med			L_elbow_lat			L_forearm			L_wrist_radius			L_wrist_ulna			R_HJC			L_HJC			R_HJC_reg			L_HJC_reg			
		X1	Y1	Z1	X2	Y2	Z2	X3	Y3	Z3	X4	Y4	Z4	X5	Y5	Z5	X6	Y6	Z6	X7	Y7	Z7	X8	Y8	Z8	X9	Y9	Z9	X10	Y10	Z10	X11	Y11	Z11	X12	Y12	Z12	X13	Y13	Z13	X14	Y14	Z14	X15	Y15	Z15	X16	Y16	Z16	X17	Y17	Z17	X18	Y18	Z18	X19	Y19	Z19	X20	Y20	Z20	X21	Y21	Z21	X22	Y22	Z22	X23	Y23	Z23	X24	Y24	Z24	X25	Y25	Z25	X26	Y26	Z26	X27	Y27	Z27	X28	Y28	Z28	X29	Y29	Z29	X30	Y30	Z30	X31	Y31	Z31	X32	Y32	Z32	X33	Y33	Z33	X34	Y34	Z34	X35	Y35	Z35	X36	Y36	Z36	X37	Y37	Z37	X38	Y38	Z38	X39	Y39	Z39	X40	Y40	Z40	X41	Y41	Z41	X42	Y42	Z42	X43	Y43	Z43	X44	Y44	Z44	X45	Y45	Z45	X46	Y46	Z46	X47	Y47	Z47	X48	Y48	Z48	X49	Y49	Z49	X50	Y50	Z50	X51	Y51	Z51	

60	0.59000000	325.89222	535.95322	-168.89181	319.97666	403.92645	-187.19165	130.89807	116.97651	-229.60528	64.20714	91.79766	-282.36641	244.89597	33.43770	-167.60063	294.27790	55.73134	-233.91936	571.63428	525.95471	-499.63353	647.26507	453.39186	-500.80067	734.44730	99.80959	-515.36362	696.85960	51.84974	-454.41644	893.25700	95.85037	-554.65828	911.33330	140.53658	-494.17280	289.37816	297.82970	-214.64839	251.99464	412.21735	-149.91240	224.04696	299.40738	-160.28279	567.99934	416.96159	-525.79248	637.47881	319.75769	-552.70679	489.94687	734.98384	-159.88564	463.54483	627.33846	-180.30138	417.16742	607.14678	-135.80853	393.20795	745.12870	-100.97679	367.51801	633.67129	-129.06384	571.97682	784.60088	-499.96881	618.24444	654.97309	-497.52691	471.84330	747.25812	-533.19989	517.48448	616.78007	-522.39936	510.38643	1022.24839	-161.90946	315.55440	1061.86050	-264.00653	531.63591	1007.19169	-426.08993	317.59200	1056.08005	-361.27694	412.48493	1541.55505	-421.82773	481.73807	1523.84112	-226.14824	461.99367	1439.44742	-577.58455	546.43753	1463.82848	-380.33766	544.24610	1448.08455	-425.21092	494.36901	1378.52584	-116.16962	407.66571	1156.92457	-87.74994	442.85596	1196.97965	-23.00678	562.66331	1068.28950	-20.38912	619.38787	962.22497	-3.55856	597.02880	952.62169	31.59031	407.60156	1268.06890	-632.67441	278.71786	1095.13858	-557.29509	293.05089	1099.85815	-637.49746	352.27362	941.08954	-632.21906	341.55296	820.99148	-650.35246	302.14893	828.49406	-678.64449	427.36419	944.74009	-199.64276	445.30120	921.99903	-411.06392	439.86914	945.78532	-196.51030	443.53264	935.39301	-371.36959	
61	0.60000000	333.08354	535.82592	-168.82466	325.63178	403.79485	-186.94282	132.32963	119.43689	-229.35867	65.37763	95.35573	-282.08983	245.20036	33.23260	-167.50989	294.85475	55.42235	-233.71958	583.68723	525.36902	-500.44051	657.86871	451.02685	-501.41409	739.10835	97.01400	-514.83615	700.18090	50.78496	-453.76064	897.51203	88.99987	-553.62184	916.83052	133.23286	-493.16798	293.47916	298.05905	-214.30844	257.50926	413.07661	-149.78274	228.08385	300.74466	-160.09421	578.45097	415.45565	-525.87831	645.84165	317.27379	-552.26405	498.68968	733.75734	-159.43083	471.61942	626.16579	-179.60138	424.88985	606.51155	-135.32055	401.53691	744.65054	-101.17814	374.95123	633.06765	-129.26249	585.08855	785.18661	-499.99244	631.69024	655.69171	-497.37464	485.41261	747.49507	-534.02376	531.30713	617.16755	-523.08014	521.27966	1020.99799	-162.18400	326.98911	1061.04099	-264.91661	543.80792	1006.58074	-426.61638	329.28942	1055.32858	-362.14410	423.29366	1539.00876	-427.61086	492.12159	1524.00512	-231.41552	473.58835	1434.66125	-581.79359	557.37363	1462.05224	-384.66651	555.08855	1445.57359	-429.38351	504.05354	1379.77986	-119.71384	416.86065	1158.61784	-89.57698	452.00975	1199.18145	-25.11217	571.67179	1070.30289	-21.42998	628.25920	964.35402	-3.70864	605.93051	955.06082	31.55234	420.60013	1262.58696	-635.76459	292.12367	1089.34152	-560.73897	307.25197	1093.69620	-640.81745	366.95567	935.14428	-634.38617	356.93086	814.99657	-652.10230	317.69469	822.20372	-680.67191	438.49691	943.62382	-200.48474	457.20272	921.39830	-411.88771	450.94577	944.86397	-197.07682	455.09094	934.57651	-372.15395	
62	0.61000000	340.84259	535.79522	-168.78615	331.69508	403.72942	-186.70339	133.98053	122.20813	-229.00655	66.74836	99.34660	-281.69792	245.59291	33.04327	-167.40453	295.55480	55.09539	-233.48874	595.17256	524.68720	-501.21198	668.05140	448.69646	-501.85565	743.22089	94.35644	-514.22800	702.58639	50.25106	-453.15445	900.96332	81.60396	-552.23268	921.73784	125.18619	-491.71555	297.93806	298.42346	-213.93935	263.54309	414.06823	-149.66653	232.49003	302.25342	-159.87361	588.50937	413.95661	-525.92580	653.88729	314.83783	-551.71131	507.73326	732.70869	-159.11246	480.05393	625.18968	-179.03451	432.96742	605.99848	-135.00411	410.15483	744.23950	-101.46322	382.91549	632.66442	-129.48072	598.32238	785.71742	-500.41721	644.99188	656.27722	-497.55516	498.86695	747.79126	-534.69776	544.78447	617.54396	-523.55840	532.45019	1019.84996	-162.67870	338.65381	1060.25041	-265.89889	556.51576	1006.43842	-427.47084	341.24342	1054.59405	-363.04495	434.20424	1536.59519	-433.45271	502.63993	1524.29285	-236.78313	485.31480	1430.02107	-586.03190	568.43939	1460.41618	-389.06883	565.97389	1443.18214	-433.61608	513.76838	1381.17460	-123.34578	425.93699	1160.51227	-91.58474	461.05709	1201.53456	-27.39032	580.48835	1072.39374	-22.56627	636.85680	966.53606	-3.91772	614.53199	957.57121	31.44405	433.83528	1257.19774	-638.87052	305.94638	1083.51706	-564.18735	321.85549	1087.54056	-644.16750	381.96332	929.20760	-636.57996	372.66469	809.00853	-653.98722	333.62160	815.95485	-682.80020	450.10258	942.54377	-201.61137	469.60014	921.13237	-413.01998	462.40425	944.18180	-197.89005	467.08403	933.96958	-373.25744	
63	0.62000000	349.18926	535.88238	-168.79587	338.19870	403.75556	-186.48024	135.90743	125.33168	-228.60257	68.39183	103.82204	-281.26193	246.08004	32.92168	-167.30636	296.37697	54.77139	-233.24501	605.85086	523.88005	-501.92300	677.76804	446.59809	-502.10331	747.24485	92.08825	-513.70822	704.69075	50.32892	-452.77634	904.15767	74.16041	-550.53619	926.40570	117.02539	-489.90308	302.81097	298.97166	-213.54976	270.13240	415.22351	-149.59207	237.29185	303.96748	-159.65532	598.13722	412.59989	-526.05507	661.83946	312.68451	-551.22575	517.12273	731.84361	-158.90636	488.89673	624.42296	-178.59322	441.45604	605.62818	-134.81800	419.09470	743.93639	-101.81366	391.44627	632.48907	-129.71324	611.42247	785.94269	-501.28484	657.72827	656.41178	-498.20039	511.81868	748.05089	-535.13459	557.35766	617.75400	-523.73531	543.89721	1018.85114	-163.33425	350.56035	1059.49498	-267.00747	569.60827	1006.64860	-428.49689	353.47091	1053.90674	-364.03653	445.22082	1534.33281	-439.34209	513.29189	1524.72821	-242.24634	497.14482	1425.55713	-590.28583	579.63627	1458.94262	-393.54166	576.97491	1440.98506	-437.90531	523.53293	1382.73197	-127.08038	434.92523	1162.62414	-93.78411	470.00221	1204.06884	-29.83593	589.11782	1074.58845	-23.79403	645.17873	968.79081	-4.18477	622.82536	960.17401	31.26005	447.30169	1251.94271	-641.98763	320.21776	1077.67649	-567.60746	336.87217	1081.41077	-647.51971	397.31740	923.32428	-638.78507	388.76191	803.06661	-655.98113	349.93408	809.78352	-685.00195	462.09907	941.55240	-202.93664	482.43077	921.11463	-414.35936	474.20807	943.68158	-198.89689	479.48307	933.56305	-374.56108	
